<svg width="24" height="24" viewBox="0 0 24 24" fill="none" xmlns="http://www.w3.org/2000/svg">
<path d="M13 2.05005V5.08005C16.39 5.57005 19 8.47005 19 12C19 12.9 18.82 13.75 18.5 14.54L21.12 16.07C21.68 14.83 22 13.45 22 12C22 6.82005 18.05 2.55005 13 2.05005ZM12 19C10.1435 19 8.36301 18.2626 7.05025 16.9498C5.7375 15.637 5 13.8566 5 12C5 8.47005 7.61 5.57005 11 5.08005V2.05005C5.94 2.55005 2 6.81005 2 12C2 14.6522 3.05357 17.1958 4.92893 19.0711C5.85752 19.9997 6.95991 20.7363 8.17317 21.2388C9.38642 21.7414 10.6868 22 12 22C15.3 22 18.23 20.39 20.05 17.91L17.45 16.38C16.17 18 14.21 19 12 19Z" fill="#313649"/>
</svg>
