<svg width="24" height="24" viewBox="0 0 24 24" fill="none" xmlns="http://www.w3.org/2000/svg">
<path d="M20.1889 8.45057V6.6308H7.45051V8.45057H20.1889ZM20.1889 15.7296V11.1802H7.45051V15.7296H20.1889ZM20.1889 4.81104C20.6715 4.81104 21.1344 5.00276 21.4756 5.34403C21.8169 5.6853 22.0086 6.14817 22.0086 6.6308V15.7296C22.0086 16.2123 21.8169 16.6751 21.4756 17.0164C21.1344 17.3577 20.6715 17.5494 20.1889 17.5494H7.45051C6.44054 17.5494 5.63074 16.7305 5.63074 15.7296V6.6308C5.63074 5.62083 6.44054 4.81104 7.45051 4.81104H20.1889ZM3.81098 19.3692H17.4592V21.1889H3.81098C3.32834 21.1889 2.86548 20.9972 2.52421 20.6559C2.18294 20.3147 1.99121 19.8518 1.99121 19.3692V9.36045H3.81098V19.3692Z" fill="#313649"/>
</svg>
