<svg width="66" height="66" viewBox="0 0 66 66" fill="none" xmlns="http://www.w3.org/2000/svg">
<path d="M5 33C5 17.536 17.536 5 33 5V5C48.464 5 61 17.536 61 33V33C61 48.464 48.464 61 33 61V61C17.536 61 5 48.464 5 33V33Z" fill="#006AFF" fill-opacity="0.15"/>
<path d="M44.6666 25.9998C44.6666 24.7165 43.6166 23.6665 42.3333 23.6665H23.6666C22.3833 23.6665 21.3333 24.7165 21.3333 25.9998M44.6666 25.9998V39.9998C44.6666 41.2832 43.6166 42.3332 42.3333 42.3332H23.6666C22.3833 42.3332 21.3333 41.2832 21.3333 39.9998V25.9998M44.6666 25.9998L32.9999 34.1665L21.3333 25.9998" stroke="#006AFF" stroke-width="2.33333" stroke-linecap="round" stroke-linejoin="round"/>
<path d="M33 56C20.2975 56 10 45.7025 10 33H0C0 51.2254 14.7746 66 33 66V56ZM56 33C56 45.7025 45.7025 56 33 56V66C51.2254 66 66 51.2254 66 33H56ZM33 10C45.7025 10 56 20.2975 56 33H66C66 14.7746 51.2254 0 33 0V10ZM33 0C14.7746 0 0 14.7746 0 33H10C10 20.2975 20.2975 10 33 10V0Z" fill="#006AFF" fill-opacity="0.08"/>
</svg>
