<svg width="40" height="40" viewBox="0 0 40 40" fill="none" xmlns="http://www.w3.org/2000/svg">
<circle cx="20" cy="20" r="20" fill="#EDF1FF"/>
<path d="M26 16C26.5304 16 27.0391 16.2107 27.4142 16.5858C27.7893 16.9609 28 17.4696 28 18V28C28 28.5304 27.7893 29.0391 27.4142 29.4142C27.0391 29.7893 26.5304 30 26 30H14C12.89 30 12 29.1 12 28V18C12 17.4696 12.2107 16.9609 12.5858 16.5858C12.9609 16.2107 13.4696 16 14 16H23V14C23 13.2044 22.6839 12.4413 22.1213 11.8787C21.5587 11.3161 20.7956 11 20 11C19.2044 11 18.4413 11.3161 17.8787 11.8787C17.3161 12.4413 17 13.2044 17 14H15C15 12.6739 15.5268 11.4021 16.4645 10.4645C17.4021 9.52678 18.6739 9 20 9C20.6566 9 21.3068 9.12933 21.9134 9.3806C22.52 9.63188 23.0712 10.0002 23.5355 10.4645C23.9998 10.9288 24.3681 11.48 24.6194 12.0866C24.8707 12.6932 25 13.3434 25 14V16H26ZM20 25C20.5304 25 21.0391 24.7893 21.4142 24.4142C21.7893 24.0391 22 23.5304 22 23C22 22.4696 21.7893 21.9609 21.4142 21.5858C21.0391 21.2107 20.5304 21 20 21C19.4696 21 18.9609 21.2107 18.5858 21.5858C18.2107 21.9609 18 22.4696 18 23C18 23.5304 18.2107 24.0391 18.5858 24.4142C18.9609 24.7893 19.4696 25 20 25Z" fill="#313649"/>
</svg>
