<svg width="24" height="24" viewBox="0 0 24 24" fill="none" xmlns="http://www.w3.org/2000/svg">
<path d="M3 7C3 6.44772 3.44772 6 4 6H10.2927C10.8449 6 11.2927 6.44772 11.2927 7C11.2927 7.55228 10.8449 8 10.2927 8H4C3.44771 8 3 7.55228 3 7ZM3 12C3 11.4477 3.44772 11 4 11H14.87C15.4223 11 15.87 11.4477 15.87 12C15.87 12.5523 15.4223 13 14.87 13H4C3.44771 13 3 12.5523 3 12ZM3 17C3 16.4477 3.44772 16 4 16H20C20.5523 16 21 16.4477 21 17C21 17.5523 20.5523 18 20 18H4C3.44772 18 3 17.5523 3 17Z" fill="white"/>
</svg>
